<svg width="201" height="201" viewBox="0 0 201 201" fill="none" xmlns="http://www.w3.org/2000/svg">
<g clip-path="url(#clip0_528_108)">
<path d="M46.4813 147.609C55.275 141.468 63.999 136.757 72.6531 133.477C81.3073 130.196 90.5896 128.556 100.5 128.556C110.41 128.556 119.728 130.196 128.452 133.477C137.176 136.757 145.934 141.468 154.728 147.609C160.87 140.072 165.232 132.465 167.814 124.787C170.396 117.11 171.688 109.015 171.688 100.5C171.688 80.2604 164.883 63.3359 151.273 49.7266C137.664 36.1172 120.74 29.3125 100.5 29.3125C80.2604 29.3125 63.3359 36.1172 49.7266 49.7266C36.1172 63.3359 29.3125 80.2604 29.3125 100.5C29.3125 109.015 30.6385 117.11 33.2906 124.787C35.9427 132.465 40.3396 140.072 46.4813 147.609ZM100.5 106.781C92.4042 106.781 85.5995 104.024 80.0859 98.5109C74.5724 92.9974 71.8156 86.1927 71.8156 78.0969C71.8156 70.001 74.5724 63.1964 80.0859 57.6828C85.5995 52.1693 92.4042 49.4125 100.5 49.4125C108.596 49.4125 115.401 52.1693 120.914 57.6828C126.428 63.1964 129.184 70.001 129.184 78.0969C129.184 86.1927 126.428 92.9974 120.914 98.5109C115.401 104.024 108.596 106.781 100.5 106.781ZM100.5 184.25C89.0542 184.25 78.2365 182.052 68.0469 177.655C57.8573 173.258 48.9589 167.256 41.3516 159.648C33.7443 152.041 27.7422 143.143 23.3453 132.953C18.9484 122.764 16.75 111.946 16.75 100.5C16.75 88.9146 18.9484 78.062 23.3453 67.9422C27.7422 57.8224 33.7443 48.9589 41.3516 41.3516C48.9589 33.7443 57.8573 27.7422 68.0469 23.3453C78.2365 18.9484 89.0542 16.75 100.5 16.75C112.085 16.75 122.938 18.9484 133.058 23.3453C143.178 27.7422 152.041 33.7443 159.648 41.3516C167.256 48.9589 173.258 57.8224 177.655 67.9422C182.052 78.062 184.25 88.9146 184.25 100.5C184.25 111.946 182.052 122.764 177.655 132.953C173.258 143.143 167.256 152.041 159.648 159.648C152.041 167.256 143.178 173.258 133.058 177.655C122.938 182.052 112.085 184.25 100.5 184.25ZM100.5 171.688C108.177 171.688 115.68 170.571 123.008 168.338C130.336 166.104 137.559 162.196 144.678 156.613C137.559 151.588 130.301 147.749 122.903 145.097C115.505 142.445 108.037 141.119 100.5 141.119C92.9625 141.119 85.4948 142.445 78.0969 145.097C70.699 147.749 63.4406 151.588 56.3219 156.613C63.4406 162.196 70.6641 166.104 77.9922 168.338C85.3203 170.571 92.8229 171.688 100.5 171.688ZM100.5 94.2188C105.246 94.2188 109.119 92.7182 112.12 89.7172C115.121 86.7161 116.622 82.8427 116.622 78.0969C116.622 73.351 115.121 69.4776 112.12 66.4766C109.119 63.4755 105.246 61.975 100.5 61.975C95.7542 61.975 91.8807 63.4755 88.8797 66.4766C85.8786 69.4776 84.3781 73.351 84.3781 78.0969C84.3781 82.8427 85.8786 86.7161 88.8797 89.7172C91.8807 92.7182 95.7542 94.2188 100.5 94.2188Z" fill="white"/>
<path d="M3104.43 -3283.09C3104.38 -3283.92 3103.67 -3284.55 3102.85 -3284.5L3089.37 -3283.67C3088.54 -3283.62 3087.91 -3282.9 3087.97 -3282.08C3088.02 -3281.25 3088.73 -3280.62 3089.56 -3280.67L3101.53 -3281.41L3102.27 -3269.43C3102.32 -3268.61 3103.03 -3267.98 3103.86 -3268.03C3104.69 -3268.08 3105.32 -3268.79 3105.26 -3269.62L3104.43 -3283.09ZM202.124 0.993428L3104.06 -3282.01L3101.81 -3283.99L199.876 -0.993428L202.124 0.993428Z" fill="black"/>
</g>
<defs>
<clipPath id="clip0_528_108">
<rect width="201" height="201" fill="white"/>
</clipPath>
</defs>
</svg>
